<svg preserveAspectRatio="none" overflow="visible" style="display: block;" width="22" height="22" viewBox="0 0 22 22" fill="none" xmlns="http://www.w3.org/2000/svg">
<g id="Icon" clip-path="url(#clip0_104_2820)">
<path id="Vector" d="M11 13.75C12.5188 13.75 13.75 12.5188 13.75 11C13.75 9.48122 12.5188 8.25 11 8.25C9.48122 8.25 8.25 9.48122 8.25 11C8.25 12.5188 9.48122 13.75 11 13.75Z" stroke="#0B1F3A" stroke-width="1.83333" stroke-linecap="round" stroke-linejoin="round"/>
<path id="Vector_2" d="M17.7833 13.75C17.6613 14.0265 17.6249 14.3332 17.6788 14.6305C17.7327 14.9279 17.8745 15.2023 18.0858 15.4183L18.1408 15.4733C18.3113 15.6436 18.4465 15.8458 18.5388 16.0684C18.631 16.2909 18.6785 16.5295 18.6785 16.7704C18.6785 17.0113 18.631 17.2499 18.5388 17.4725C18.4465 17.695 18.3113 17.8972 18.1408 18.0675C17.9706 18.238 17.7684 18.3732 17.5458 18.4654C17.3232 18.5577 17.0847 18.6052 16.8438 18.6052C16.6028 18.6052 16.3643 18.5577 16.1417 18.4654C15.9191 18.3732 15.7169 18.238 15.5467 18.0675L15.4917 18.0125C15.2756 17.8012 15.0012 17.6594 14.7039 17.6055C14.4065 17.5516 14.0998 17.588 13.8233 17.71C13.5522 17.8262 13.321 18.0191 13.1581 18.2651C12.9952 18.511 12.9078 18.7992 12.9067 19.0942V19.25C12.9067 19.7362 12.7135 20.2025 12.3697 20.5464C12.0259 20.8902 11.5596 21.0833 11.0733 21.0833C10.5871 21.0833 10.1208 20.8902 9.77697 20.5464C9.43316 20.2025 9.24 19.7362 9.24 19.25V19.1675C9.2329 18.8641 9.13469 18.5698 8.95814 18.323C8.78158 18.0761 8.53484 17.8881 8.25 17.7833C7.97352 17.6613 7.66682 17.6249 7.36946 17.6788C7.0721 17.7327 6.79771 17.8745 6.58167 18.0858L6.52667 18.1408C6.3564 18.3113 6.1542 18.4465 5.93164 18.5388C5.70908 18.631 5.47051 18.6785 5.22958 18.6785C4.98866 18.6785 4.75009 18.631 4.52753 18.5388C4.30496 18.4465 4.10277 18.3113 3.9325 18.1408C3.76204 17.9706 3.62682 17.7684 3.53456 17.5458C3.4423 17.3232 3.39481 17.0847 3.39481 16.8438C3.39481 16.6028 3.4423 16.3643 3.53456 16.1417C3.62682 15.9191 3.76204 15.7169 3.9325 15.5467L3.9875 15.4917C4.19883 15.2756 4.34059 15.0012 4.3945 14.7039C4.44842 14.4065 4.41202 14.0998 4.29 13.8233C4.1738 13.5522 3.98086 13.321 3.73493 13.1581C3.48899 12.9952 3.2008 12.9078 2.90583 12.9067H2.75C2.26377 12.9067 1.79745 12.7135 1.45364 12.3697C1.10982 12.0259 0.916666 11.5596 0.916666 11.0733C0.916666 10.5871 1.10982 10.1208 1.45364 9.77697C1.79745 9.43316 2.26377 9.24 2.75 9.24H2.8325C3.13591 9.2329 3.43017 9.13469 3.67702 8.95814C3.92388 8.78158 4.11191 8.53484 4.21667 8.25C4.33869 7.97352 4.37509 7.66682 4.32117 7.36946C4.26725 7.0721 4.12549 6.79771 3.91417 6.58167L3.85917 6.52667C3.68871 6.3564 3.55349 6.1542 3.46122 5.93164C3.36896 5.70908 3.32147 5.47051 3.32147 5.22958C3.32147 4.98866 3.36896 4.75009 3.46122 4.52753C3.55349 4.30496 3.68871 4.10277 3.85917 3.9325C4.02943 3.76204 4.23163 3.62682 4.45419 3.53456C4.67676 3.4423 4.91532 3.39481 5.15625 3.39481C5.39718 3.39481 5.63574 3.4423 5.85831 3.53456C6.08087 3.62682 6.28307 3.76204 6.45333 3.9325L6.50833 3.9875C6.72437 4.19883 6.99876 4.34059 7.29613 4.3945C7.59349 4.44842 7.90019 4.41202 8.17667 4.29H8.25C8.52112 4.1738 8.75235 3.98086 8.91522 3.73493C9.07809 3.48899 9.16549 3.2008 9.16667 2.90583V2.75C9.16667 2.26377 9.35982 1.79745 9.70364 1.45364C10.0475 1.10982 10.5138 0.916666 11 0.916666C11.4862 0.916666 11.9525 1.10982 12.2964 1.45364C12.6402 1.79745 12.8333 2.26377 12.8333 2.75V2.8325C12.8345 3.12747 12.9219 3.41566 13.0848 3.66159C13.2477 3.90753 13.4789 4.10047 13.75 4.21667C14.0265 4.33869 14.3332 4.37509 14.6305 4.32117C14.9279 4.26725 15.2023 4.12549 15.4183 3.91417L15.4733 3.85917C15.6436 3.68871 15.8458 3.55349 16.0684 3.46122C16.2909 3.36896 16.5295 3.32147 16.7704 3.32147C17.0113 3.32147 17.2499 3.36896 17.4725 3.46122C17.695 3.55349 17.8972 3.68871 18.0675 3.85917C18.238 4.02943 18.3732 4.23163 18.4654 4.45419C18.5577 4.67676 18.6052 4.91532 18.6052 5.15625C18.6052 5.39718 18.5577 5.63574 18.4654 5.85831C18.3732 6.08087 18.238 6.28307 18.0675 6.45333L18.0125 6.50833C17.8012 6.72437 17.6594 6.99876 17.6055 7.29613C17.5516 7.59349 17.588 7.90019 17.71 8.17667V8.25C17.8262 8.52112 18.0191 8.75235 18.2651 8.91522C18.511 9.07809 18.7992 9.16549 19.0942 9.16667H19.25C19.7362 9.16667 20.2025 9.35982 20.5464 9.70364C20.8902 10.0475 21.0833 10.5138 21.0833 11C21.0833 11.4862 20.8902 11.9525 20.5464 12.2964C20.2025 12.6402 19.7362 12.8333 19.25 12.8333H19.1675C18.8725 12.8345 18.5843 12.9219 18.3384 13.0848C18.0925 13.2477 17.8995 13.4789 17.7833 13.75Z" stroke="#0B1F3A" stroke-width="1.83333" stroke-linecap="round" stroke-linejoin="round"/>
</g>
<defs>
<clipPath id="clip0_104_2820">
<rect width="22" height="22" fill="white"/>
</clipPath>
</defs>
</svg>
