<svg preserveAspectRatio="none" overflow="visible" style="display: block;" width="22" height="22" viewBox="0 0 22 22" fill="none" xmlns="http://www.w3.org/2000/svg">
<g id="Icon">
<path id="Vector" d="M9.16667 1.83333V8.53417L4.235 16.9583C4.16745 17.2137 4.15589 17.4807 4.2011 17.741C4.24632 18.0012 4.34725 18.2487 4.49699 18.4663C4.64672 18.6839 4.84172 18.8666 5.06863 19.0019C5.29554 19.1372 5.54901 19.2218 5.81167 19.25H16.1883C16.451 19.2218 16.7045 19.1372 16.9314 19.0019C17.1583 18.8666 17.3533 18.6839 17.503 18.4663C17.6527 18.2487 17.7537 18.0012 17.7989 17.741C17.8441 17.4807 17.8326 17.2137 17.765 16.9583L12.8333 8.53417V1.83333" stroke="#16A6A3" stroke-width="1.83333" stroke-linecap="round" stroke-linejoin="round"/>
<path id="Vector_2" d="M7.33333 1.83333H14.6667" stroke="#16A6A3" stroke-width="1.83333" stroke-linecap="round" stroke-linejoin="round"/>
<path id="Vector_3" d="M5.5 14.6667H16.5" stroke="#16A6A3" stroke-width="1.83333" stroke-linecap="round" stroke-linejoin="round"/>
</g>
</svg>
